HIERARCHY
ROOT root
{
  OFFSET 0 93.2929 0
  CHANNELS 6 Xposition Yposition Zposition Zrotation Xrotation Yrotation
  JOINT torso_1
  {
    OFFSET 0 5.07867 -1.15138
    CHANNELS 6 Xposition Yposition Zposition Zrotation Xrotation Yrotation
    JOINT torso_2
    {
      OFFSET 0 5.61661 1.07143
      CHANNELS 6 Xposition Yposition Zposition Zrotation Xrotation Yrotation
      JOINT torso_3
      {
        OFFSET -1.02604e-17 5.98978 0.11501
        CHANNELS 6 Xposition Yposition Zposition Zrotation Xrotation Yrotation
        JOINT torso_4
        {
          OFFSET -1.10457e-17 6.50583 -0.443523
          CHANNELS 6 Xposition Yposition Zposition Zrotation Xrotation Yrotation
          JOINT torso_5
          {
            OFFSET -1.97295e-17 7.60548 -1.50593
            CHANNELS 6 Xposition Yposition Zposition Zrotation Xrotation Yrotation
            JOINT torso_6
            {
              OFFSET -2.53307e-17 9.49737 -0.914492
              CHANNELS 6 Xposition Yposition Zposition Zrotation Xrotation Yrotation
              JOINT torso_7
              {
                OFFSET -2.90401e-17 10.5513 1.57691
                CHANNELS 6 Xposition Yposition Zposition Zrotation Xrotation Yrotation
                JOINT neck_1
                {
                  OFFSET -1.29193e-17 4.78644 0.715339
                  CHANNELS 6 Xposition Yposition Zposition Zrotation Xrotation Yrotation
                  JOINT neck_2
                  {
                    OFFSET -1.8116e-17 4.82109 0.421791
                    CHANNELS 6 Xposition Yposition Zposition Zrotation Xrotation Yrotation
                    JOINT head
                    {
                      OFFSET -2.00958e-17 4.83041 0.765062
                      CHANNELS 6 Xposition Yposition Zposition Zrotation Xrotation Yrotation
                      End Site
                      {
                        OFFSET 0 0.1 0
                      }
                    }
                  }
                }
                JOINT l_shoulder
                {
                  OFFSET 1.23299 -7.60731 7.53374
                  CHANNELS 6 Xposition Yposition Zposition Zrotation Xrotation Yrotation
                  JOINT l_up_arm
                  {
                    OFFSET 12.9547 3.2495 -3.26872
                    CHANNELS 6 Xposition Yposition Zposition Zrotation Xrotation Yrotation
                    JOINT l_low_arm
                    {
                      OFFSET 29.2081 0.0598081 0.137039
                      CHANNELS 6 Xposition Yposition Zposition Zrotation Xrotation Yrotation
                      JOINT l_hand
                      {
                        OFFSET 24.234 0.0496219 0.113701
                        CHANNELS 6 Xposition Yposition Zposition Zrotation Xrotation Yrotation
                        End Site
                        {
                          OFFSET 0.1 0 0
                        }
                      }
                    }
                  }
                }
                JOINT r_shoulder
                {
                  OFFSET -1.23299 -7.60729 7.53365
                  CHANNELS 6 Xposition Yposition Zposition Zrotation Xrotation Yrotation
                  JOINT r_up_arm
                  {
                    OFFSET -12.9547 3.2495 -3.26872
                    CHANNELS 6 Xposition Yposition Zposition Zrotation Xrotation Yrotation
                    JOINT r_low_arm
                    {
                      OFFSET -29.2081 0.0598081 0.137039
                      CHANNELS 6 Xposition Yposition Zposition Zrotation Xrotation Yrotation
                      JOINT r_hand
                      {
                        OFFSET -24.234 0.0496218 0.113702
                        CHANNELS 6 Xposition Yposition Zposition Zrotation Xrotation Yrotation
                        End Site
                        {
                          OFFSET -0.1 0 0
                        }
                      }
                    }
                  }
                }
              }
            }
          }
        }
      }
    }
  }
  JOINT l_up_leg
  {
    OFFSET 9.23673 -4.20556 2.0327
    CHANNELS 6 Xposition Yposition Zposition Zrotation Xrotation Yrotation
    JOINT l_low_leg
    {
      OFFSET -0.852353 -38.7721 -0.655187
      CHANNELS 6 Xposition Yposition Zposition Zrotation Xrotation Yrotation
      JOINT l_foot
      {
        OFFSET -2.32622 -40.4017 -6.04875
        CHANNELS 6 Xposition Yposition Zposition Zrotation Xrotation Yrotation
        JOINT l_toes
        {
          OFFSET 0.779096 -9.8844 12.4959
          CHANNELS 6 Xposition Yposition Zposition Zrotation Xrotation Yrotation
          End Site
          {
            OFFSET 0 0 0.1
          }
        }
      }
    }
  }
  JOINT r_up_leg
  {
    OFFSET -9.23673 -4.20556 2.0327
    CHANNELS 6 Xposition Yposition Zposition Zrotation Xrotation Yrotation
    JOINT r_low_leg
    {
      OFFSET 0.852353 -38.7721 -0.655187
      CHANNELS 6 Xposition Yposition Zposition Zrotation Xrotation Yrotation
      JOINT r_foot
      {
        OFFSET 2.32622 -40.4017 -6.04875
        CHANNELS 6 Xposition Yposition Zposition Zrotation Xrotation Yrotation
        JOINT r_toes
        {
          OFFSET -0.779096 -9.8844 12.4959
          CHANNELS 6 Xposition Yposition Zposition Zrotation Xrotation Yrotation
          End Site
          {
            OFFSET 0 0 0.1
          }
        }
      }
    }
  }
}
MOTION
Frames: 7
Frame Time: 0.016667
0 93.2929 0 -0 0 -0 0 5.07867 -1.15138 -0 0 -0 0 5.61661 1.07143 -0 0 -0 -1.02604e-17 5.98978 0.11501 -0 0 -0 -1.10457e-17 6.50583 -0.443523 -0 0 -0 -1.97295e-17 7.60548 -1.50593 -0 0 -0 -2.53307e-17 9.49737 -0.914492 -0 0 -0 -2.90401e-17 10.5513 1.57691 -0 0 -0 -1.29193e-17 4.78644 0.715339 -0 0 -0 -1.8116e-17 4.82109 0.421791 -0 0 -0 -2.00958e-17 4.83041 0.765062 -0 0 -0 1.23299 -7.60731 7.53374 -0 0 -0 12.9547 3.2495 -3.26872 -0 0 -0 29.2081 0.0598081 0.137039 -0 0 -0 24.234 0.0496219 0.113701 -0 0 -0 -1.23299 -7.60729 7.53365 -0 0 -0 -12.9547 3.2495 -3.26872 -0 0 -0 -29.2081 0.0598081 0.137039 -0 0 -0 -24.234 0.0496218 0.113702 -0 0 -0 9.23673 -4.20556 2.0327 -0 0 -0 -0.852353 -38.7721 -0.655187 -0 0 -0 -2.32622 -40.4017 -6.04875 -0 0 -0 0.779096 -9.8844 12.4959 -0 0 -0 -9.23673 -4.20556 2.0327 -0 0 -0 0.852353 -38.7721 -0.655187 -0 0 -0 2.32622 -40.4017 -6.04875 -0 0 -0 -0.779096 -9.8844 12.4959 -0 0 -0 
-12.3301 92.7594 64.7024 2.01973 0.239301 1.38762 0 5.07867 -1.15138 -1.57465 -0.222341 0.0514525 0 5.61661 1.07143 -1.12841 0.252696 -0.214645 -1.02604e-17 5.98978 0.11501 -0.756162 0.906646 -0.125365 -1.10457e-17 6.50583 -0.443523 -0.417886 1.62234 -0.101954 -1.97295e-17 7.60548 -1.50593 -0.0417111 1.62707 -0.0874715 -2.53307e-17 9.49737 -0.914492 0.364899 1.61978 -0.384552 -2.90401e-17 10.5513 1.57691 -0.0795538 0.816575 0.0534713 -1.29193e-17 4.78644 0.715339 -0.171084 -1.71926 -4.07162 -1.8116e-17 4.82109 0.421791 0.427801 -4.19075 -2.02229 -2.00958e-17 4.83041 0.765062 0.132799 -3.08708 1.40365 1.23299 -7.60731 7.53374 -1.65175 2.60496 -0.911353 12.9547 3.2495 -3.26872 -80.799 11.7112 -5.42478 29.2081 0.0598081 0.137039 1.75193 -0.120714 -8.47226 24.234 0.0496219 0.113701 2.23787 -13.2655 -4.22564 -1.23299 -7.60729 7.53365 4.46181 4.07348 1.0934 -12.9547 3.2495 -3.26872 77.9343 9.19372 2.1366 -29.2081 0.0598081 0.137039 -1.32333 -0.0669074 6.38938 -24.234 0.0496218 0.113702 0.616696 -14.6596 3.96407 9.23673 -4.20556 2.0327 -2.2323 -1.05139 -13.0564 -0.852353 -38.7721 -0.655187 -0.110058 0.410776 -0.00677552 -2.32622 -40.4017 -6.04875 0.451192 -0.982832 15.1302 0.779096 -9.8844 12.4959 -1.49135e-16 -8.00576e-16 1.7861e-17 -9.23673 -4.20556 2.0327 -2.64915 -3.95686 19.3388 0.852353 -38.7721 -0.655187 1.03385 3.86082 0.0325652 2.32622 -40.4017 -6.04875 -2.53936 -3.15949 -15.1119 -0.779096 -9.8844 12.4959 -5.96354e-16 -5.59082e-16 -1.27471e-14 
-12.3409 92.7585 64.7073 2.02811 0.255252 1.34695 0 5.07867 -1.15138 -1.57362 -0.216688 0.0538225 0 5.61661 1.07143 -1.12862 0.255373 -0.212305 -1.02604e-17 5.98978 0.11501 -0.757143 0.90485 -0.123164 -1.10457e-17 6.50583 -0.443523 -0.41968 1.61367 -0.0999128 -1.97295e-17 7.60548 -1.50593 -0.0437745 1.61604 -0.0851098 -2.53307e-17 9.49737 -0.914492 0.362657 1.60524 -0.381769 -2.90401e-17 10.5513 1.57691 -0.0793356 0.81749 0.0533583 -1.29193e-17 4.78644 0.715339 -0.175004 -1.75776 -4.05381 -1.8116e-17 4.82109 0.421791 0.418164 -4.17498 -2.01437 -2.00958e-17 4.83041 0.765062 0.122346 -3.0576 1.41671 1.23299 -7.60731 7.53374 -1.65315 2.62133 -0.911748 12.9547 3.2495 -3.26872 -80.8317 11.7484 -5.37407 29.2081 0.0598081 0.137039 1.75247 -0.120792 -8.4749 24.234 0.0496219 0.113701 2.22696 -13.2449 -4.23035 -1.23299 -7.60729 7.53365 4.45874 4.08386 1.09055 -12.9547 3.2495 -3.26872 77.9335 9.25583 2.12069 -29.2081 0.0598081 0.137039 -1.33026 -0.0676486 6.42294 -24.234 0.0496218 0.113702 0.632299 -14.7633 3.96122 9.23673 -4.20556 2.0327 -2.2297 -1.06961 -13.0353 -0.852353 -38.7721 -0.655187 -0.11397 0.425379 -0.00700186 -2.32622 -40.4017 -6.04875 0.436514 -0.995574 15.1327 0.779096 -9.8844 12.4959 2.48481e-17 -7.95139e-16 1.2424e-17 -9.23673 -4.20556 2.0327 -2.64145 -3.99694 19.3688 0.852353 -38.7721 -0.655187 1.04517 3.90306 0.032536 2.32622 -40.4017 -6.04875 -2.56011 -3.1724 -15.112 -0.779096 -9.8844 12.4959 -5.96354e-16 -5.59082e-16 -1.27471e-14 
-12.3511 92.7576 64.7124 2.04368 0.270594 1.3099 0 5.07867 -1.15138 -1.57436 -0.209803 0.0564396 0 5.61661 1.07143 -1.13025 0.258702 -0.209872 -1.02604e-17 5.98978 0.11501 -0.759077 0.903158 -0.120793 -1.10457e-17 6.50583 -0.443523 -0.422001 1.60417 -0.0976417 -1.97295e-17 7.60548 -1.50593 -0.0458551 1.60361 -0.0824369 -2.53307e-17 9.49737 -0.914492 0.360966 1.58896 -0.378838 -2.90401e-17 10.5513 1.57691 -0.0790639 0.818798 0.0535095 -1.29193e-17 4.78644 0.715339 -0.178571 -1.79202 -4.03716 -1.8116e-17 4.82109 0.421791 0.409603 -4.1592 -2.00698 -2.00958e-17 4.83041 0.765062 0.111381 -3.02671 1.421 1.23299 -7.60731 7.53374 -1.64668 2.63697 -0.909098 12.9547 3.2495 -3.26872 -80.8678 11.7944 -5.32669 29.2081 0.0598081 0.137039 1.75404 -0.121018 -8.48255 24.234 0.0496219 0.113701 2.21509 -13.2321 -4.23162 -1.23299 -7.60729 7.53365 4.46046 4.09687 1.08992 -12.9547 3.2495 -3.26872 77.9295 9.30552 2.10442 -29.2081 0.0598081 0.137039 -1.33587 -0.068252 6.45012 -24.234 0.0496218 0.113702 0.644114 -14.8628 3.95692 9.23673 -4.20556 2.0327 -2.23405 -1.08483 -13.0214 -0.852353 -38.7721 -0.655187 -0.116416 0.434512 -0.00714292 -2.32622 -40.4017 -6.04875 0.414 -1.00371 15.1356 0.779096 -9.8844 12.4959 -6.62148e-17 -7.97984e-16 1.52698e-17 -9.23673 -4.20556 2.0327 -2.6412 -4.03607 19.3896 0.852353 -38.7721 -0.655187 1.05697 3.94708 0.0324967 2.32622 -40.4017 -6.04875 -2.58399 -3.18993 -15.1125 -0.779096 -9.8844 12.4959 -5.96354e-16 -5.59082e-16 -1.27471e-14 
-12.3612 92.7572 64.7175 2.0625 0.279938 1.27693 0 5.07867 -1.15138 -1.57566 -0.202039 0.0592914 0 5.61661 1.07143 -1.1323 0.262773 -0.207262 -1.02604e-17 5.98978 0.11501 -0.761299 0.902366 -0.118226 -1.10457e-17 6.50583 -0.443523 -0.424501 1.59574 -0.0951308 -1.97295e-17 7.60548 -1.50593 -0.0479759 1.59203 -0.0795025 -2.53307e-17 9.49737 -0.914492 0.359457 1.57363 -0.37564 -2.90401e-17 10.5513 1.57691 -0.0788439 0.820074 0.0537604 -1.29193e-17 4.78644 0.715339 -0.182025 -1.81901 -4.02119 -1.8116e-17 4.82109 0.421791 0.400433 -4.14954 -1.99999 -2.00958e-17 4.83041 0.765062 0.0990804 -3.00125 1.41894 1.23299 -7.60731 7.53374 -1.63188 2.64972 -0.903923 12.9547 3.2495 -3.26872 -80.908 11.8392 -5.28692 29.2081 0.0598081 0.137039 1.75576 -0.121265 -8.49091 24.234 0.0496219 0.113701 2.2065 -13.2215 -4.2265 -1.23299 -7.60729 7.53365 4.46289 4.10973 1.08969 -12.9547 3.2495 -3.26872 77.9244 9.35097 2.09143 -29.2081 0.0598081 0.137039 -1.33908 -0.0685995 6.46572 -24.234 0.0496218 0.113702 0.662718 -14.9771 3.96141 9.23673 -4.20556 2.0327 -2.24055 -1.09471 -13.0189 -0.852353 -38.7721 -0.655187 -0.118849 0.443593 -0.00728279 -2.32622 -40.4017 -6.04875 0.38403 -1.00888 15.1391 0.779096 -9.8844 12.4959 -3.23119e-16 -8.06013e-16 2.3298e-17 -9.23673 -4.20556 2.0327 -2.64537 -4.06315 19.4036 0.852353 -38.7721 -0.655187 1.06623 3.98163 0.0324595 2.32622 -40.4017 -6.04875 -2.60686 -3.20649 -15.1127 -0.779096 -9.8844 12.4959 -5.96354e-16 -5.59082e-16 -1.27471e-14 
-12.3711 92.756 64.7223 2.07757 0.298605 1.24884 0 5.07867 -1.15138 -1.57482 -0.195129 0.0608377 0 5.61661 1.07143 -1.13234 0.266216 -0.205581 -1.02604e-17 5.98978 0.11501 -0.761813 0.901302 -0.116471 -1.10457e-17 6.50583 -0.443523 -0.425544 1.58758 -0.0933881 -1.97295e-17 7.60548 -1.50593 -0.0491299 1.58094 -0.0775427 -2.53307e-17 9.49737 -0.914492 0.358249 1.55901 -0.373561 -2.90401e-17 10.5513 1.57691 -0.0786254 0.821126 0.0539692 -1.29193e-17 4.78644 0.715339 -0.184355 -1.83445 -4.00691 -1.8116e-17 4.82109 0.421791 0.389825 -4.14672 -1.99375 -2.00958e-17 4.83041 0.765062 0.0818736 -2.99441 1.41517 1.23299 -7.60731 7.53374 -1.6099 2.66037 -0.897112 12.9547 3.2495 -3.26872 -80.9451 11.9022 -5.2542 29.2081 0.0598081 0.137039 1.75763 -0.121534 -8.50001 24.234 0.0496219 0.113701 2.19018 -13.2354 -4.23758 -1.23299 -7.60729 7.53365 4.4654 4.12169 1.08902 -12.9547 3.2495 -3.26872 77.9181 9.40963 2.08028 -29.2081 0.0598081 0.137039 -1.34214 -0.0689307 6.48056 -24.234 0.0496218 0.113702 0.686392 -15.1119 3.98615 9.23673 -4.20556 2.0327 -2.2436 -1.11715 -13.0207 -0.852353 -38.7721 -0.655187 -0.122941 0.458871 -0.00751722 -2.32622 -40.4017 -6.04875 0.358399 -1.02135 15.1421 0.779096 -9.8844 12.4959 3.39497e-16 -7.85306e-16 2.59127e-18 -9.23673 -4.20556 2.0327 -2.64724 -4.08902 19.4154 0.852353 -38.7721 -0.655187 1.07075 3.99852 0.0324393 2.32622 -40.4017 -6.04875 -2.62685 -3.22389 -15.1135 -0.779096 -9.8844 12.4959 -5.96354e-16 -5.59082e-16 -1.27471e-14 
-12.3812 92.755 64.7271 2.08324 0.313421 1.22166 0 5.07867 -1.15138 -1.57121 -0.187444 0.061243 0 5.61661 1.07143 -1.12966 0.270299 -0.204667 -1.02604e-17 5.98978 0.11501 -0.759997 0.900814 -0.11545 -1.10457e-17 6.50583 -0.443523 -0.424552 1.57992 -0.0923411 -1.97295e-17 7.60548 -1.50593 -0.0487715 1.57026 -0.0766027 -2.53307e-17 9.49737 -0.914492 0.357834 1.54497 -0.37277 -2.90401e-17 10.5513 1.57691 -0.0785421 0.822046 0.0542879 -1.29193e-17 4.78644 0.715339 -0.18695 -1.85228 -3.9992 -1.8116e-17 4.82109 0.421791 0.381953 -4.14122 -1.99043 -2.00958e-17 4.83041 0.765062 0.0658344 -2.981 1.41877 1.23299 -7.60731 7.53374 -1.59301 2.6707 -0.892533 12.9547 3.2495 -3.26872 -80.9792 11.9464 -5.22669 29.2081 0.0598081 0.137039 1.76036 -0.121929 -8.51332 24.234 0.0496219 0.113701 2.18445 -13.2552 -4.24097 -1.23299 -7.60729 7.53365 4.47206 4.13378 1.09141 -12.9547 3.2495 -3.26872 77.9105 9.44396 2.07468 -29.2081 0.0598081 0.137039 -1.34624 -0.0693751 6.50041 -24.234 0.0496218 0.113702 0.699824 -15.2179 3.98776 9.23673 -4.20556 2.0327 -2.23784 -1.13794 -13.0178 -0.852353 -38.7721 -0.655187 -0.128121 0.478209 -0.0078124 -2.32622 -40.4017 -6.04875 0.339784 -1.03803 15.1451 0.779096 -9.8844 12.4959 1.32573e-16 -7.91772e-16 9.05763e-18 -9.23673 -4.20556 2.0327 -2.64193 -4.11361 19.4326 0.852353 -38.7721 -0.655187 1.07612 4.01855 0.0324135 2.32622 -40.4017 -6.04875 -2.62913 -3.23889 -15.1143 -0.779096 -9.8844 12.4959 -5.96354e-16 -5.59082e-16 -1.27471e-14 
